<?xml version="1.0" standalone="no"?><!DOCTYPE svg PUBLIC "-//W3C//DTD SVG 1.1//EN" "http://www.w3.org/Graphics/SVG/1.1/DTD/svg11.dtd"><svg t="1658491326148" class="icon" viewBox="0 0 1024 1024" version="1.1" xmlns="http://www.w3.org/2000/svg" p-id="867" xmlns:xlink="http://www.w3.org/1999/xlink" width="200" height="200"><defs><style type="text/css">@font-face { font-family: feedback-iconfont; src: url("//at.alicdn.com/t/font_1031158_u69w8yhxdu.woff2?t=1630033759944") format("woff2"), url("//at.alicdn.com/t/font_1031158_u69w8yhxdu.woff?t=1630033759944") format("woff"), url("//at.alicdn.com/t/font_1031158_u69w8yhxdu.ttf?t=1630033759944") format("truetype"); }
</style></defs><path d="M788 379c0 138.6-251 321-251 321S286 517.6 286 379s112.4-251 251-251 251 112.4 251 251z" fill="#2b6de9" p-id="868"></path><path d="M890.6 699c-98 98-404.5 49.5-404.5 49.5s1.5-246.4 99.5-344.5 206.9-158 305-60 98 257 0 355z" fill="#2b6de9" p-id="869"></path><path d="M470.5 385.9c98 98 99.5 364.5 99.5 364.5s-306.4 48.5-404.5-49.5-98-256.9 0-355 207-58 305 40z" fill="#2b6de9" p-id="870"></path><path d="M438.6 775.7c-9-24.5 25.3-47.7 88.4-48.2s96.6 21.4 96.6 44.5-82 117.8-135.1 137.4C435.4 929 412.3 929 386.9 929s-27.7-45 19.6-62.3c47.4-17.4 41.1-66.5 32.1-91z" fill="#2b6de9" p-id="871"></path><path d="M739.9 267.1c-3.8 0-7.5-2.2-9.2-6-18.7-42.5-50.3-81.1-89.1-108.6C600.5 123.4 553.9 108 507 108c-34.2 0-67.3 7-98.3 20.9-30 13.4-56.5 32.5-78.8 56.7-3.7 4.1-10.1 4.3-14.1 0.6-4.1-3.7-4.3-10.1-0.6-14.1 24.2-26.2 52.9-46.9 85.3-61.4C434.1 95.6 469.9 88 507 88c51.1 0 101.7 16.7 146.2 48.2 41.7 29.6 75.8 71.1 95.9 116.8 2.2 5.1-0.1 11-5.1 13.2-1.4 0.6-2.8 0.9-4.1 0.9zM613.5 740.5c-6.8 0-13.6-0.1-20.5-0.2-5.5-0.1-9.9-4.7-9.8-10.2 0.1-5.5 4.7-9.9 10.2-9.8 73.8 1.5 205.8-4.1 260.1-58.4 3.9-3.9 10.2-3.9 14.1 0 3.9 3.9 3.9 10.2 0 14.1-25.4 25.4-67 43.6-123.8 54-37.2 6.9-82 10.5-130.3 10.5z" fill="#2b6de9" p-id="872"></path><path d="M457 702.4h-0.5c-5.5-0.3-9.7-5-9.5-10.5 3.8-70.9 21.2-244.5 101.5-324.8 57.4-57.4 108.7-92.1 156.7-106 59.8-17.3 114.5-1.9 162.4 46 32.6 32.6 56 73.2 67.7 117.4 11.4 42.9 11.6 88.4 0.7 131.4-1.4 5.4-6.8 8.6-12.1 7.2-5.4-1.4-8.6-6.8-7.2-12.1 10.1-39.8 9.8-81.7-0.7-121.4-10.8-40.8-32.4-78.3-62.5-108.4-43-42.9-89.7-56.3-142.7-41-44.7 13-93.2 46-148.2 101-32.5 32.5-57.7 86-74.8 159-14.4 61.6-19.3 122.1-20.9 152.7-0.2 5.4-4.6 9.5-9.9 9.5z" fill="#2b6de9" p-id="873"></path><path d="M386 742.4c-37.7 0-86.2-2.1-132-10.4-57.9-10.5-100.1-28.6-125.5-54-49.3-49.3-76.4-114.8-76.4-184.5s27.1-135.3 76.4-184.6c48.6-48.7 102.9-67.6 161.4-56.3 50.5 9.8 103.5 42.2 157.7 96.3 24 24 46.7 62.7 62.2 106 1.9 5.2-0.8 10.9-6 12.8-5.2 1.9-10.9-0.8-12.8-6-14.3-40-35.9-76.9-57.6-98.6-51.3-51.2-100.9-81.8-147.4-90.8-24.9-4.8-49.2-3.4-72.2 4.3-24.7 8.2-48.7 23.9-71.3 46.5C97 368.7 71.9 429.2 71.9 493.6S97 618.5 142.5 664c22.5 22.5 61.1 38.8 114.9 48.5 53 9.6 110 10.7 148.6 9.9 5.5-0.1 10.1 4.3 10.2 9.8 0.1 5.5-4.3 10.1-9.8 10.2-6.2-0.1-13.1 0-20.4 0z" fill="#2b6de9" p-id="874"></path><path d="M356.9 909c-14.1 0-24.8-9.3-27.3-23.6-3.4-19.1 8.8-45.4 43.5-58.1 11.2-4.1 19.5-10.5 24.7-18.9 2.9-4.7 9.1-6.2 13.8-3.3 4.7 2.9 6.2 9 3.3 13.8-7.6 12.4-19.3 21.5-34.9 27.2-25.5 9.3-32.3 26.5-30.7 35.8 0.8 4.7 3.4 7.1 7.6 7.1 25.1 0 46.7 0 98.1-19 21.9-8.1 53.2-32.3 83.5-64.7 31.7-33.9 45-57.9 45-63.3 0-4.6-2.2-9.1-6.6-13.5-13.6-13.5-43.4-21.4-79.9-21-45.5 0.4-70.1 12.7-77.4 23.2-2.7 3.8-3.2 7.5-1.7 11.5 2.8 7.4 7.4 22.7 6.9 40.4-0.2 5.5-4.7 9.9-10.3 9.7-5.5-0.2-9.9-4.8-9.7-10.3 0.4-14.9-3.8-28-5.7-32.9-3.7-10.2-2.3-20.8 4-29.9 13.5-19.6 48.6-31.5 93.7-31.8 57.9-0.5 83.8 16.6 94.1 26.8 8.2 8.2 12.6 17.7 12.6 27.7 0 21.9-41.9 67.9-50.3 76.8-46.7 50-79.4 65.5-91.3 69.9-54.7 20.4-79.1 20.4-105 20.4z" fill="#2b6de9" p-id="875"></path><path d="M527 623h-0.9c-5.5-0.5-9.6-5.3-9.1-10.8 0.1-1.2 2.8-30.9 16.3-70.2 12.5-36.3 37.1-87.9 83.2-127.6 65.2-56.1 111.8-66.3 132.9-67.6 6.4-0.4 11.5 5.4 10.4 11.7-0.8 4.5-4.6 7.9-9.2 8.2-5.7 0.3-14.4 1.6-25.8 5.1-36.6 11.4-72 37.7-95.2 57.7-42.6 36.6-65.4 84.6-77.1 118.4-12.8 37-15.4 65.6-15.4 65.9-0.6 5.3-5 9.2-10.1 9.2z" fill="#fff" p-id="876"></path></svg>
